In the small New England town of Dunwich, a priest commits suicide by hanging himself in the church cemetery which somehow opens the gates of hell allowing the dead to rise. Peter, a New York City reporter, teams up with a young psychic, named Mary, to travel to the town where they team up with another couple, psychiatrist Jerry and patient Sandra, to find a way to close the gates before All Saints Day or the dead all over the world will rise up and kill the living.



Format                           : Matroska
File size                        : 1.39 GiB
Duration                         : 1h 29mn
Overall bit rate                 : 2 231 Kbps

Video
ID                               : 1
Format                           : AVC
Format/Info                      : Advanced Video Codec
Format profile                   : High@L3.0
Format settings, CABAC           : Yes
Format settings, ReFrames        : 3 frames
Format_Settings_GOP              : M=1, N=15
Muxing mode                      : Container profile=Unknown@3.0
Codec ID                         : V_MPEG4/ISO/AVC
Duration                         : 1h 29mn
Bit rate                         : 1 995 Kbps
Width                            : 720 pixels
Height                           : 560 pixels
Display aspect ratio             : 16:9
Frame rate                       : 25.000 fps
Resolution                       : 8 bits
Colorimetry                      : 4:2:0
Scan type                        : Progressive
Bits/(Pixel*Frame)               : 0.198
Stream size                      : 1.24 GiB (89%)
Writing library                  : x264 core 79
Color primaries                  : BT.601-6 525, BT.1358 525, BT.1700 NTSC, SMPTE 170M
Transfer characteristics         : BT.709-5, BT.1361
Matrix coefficients              : BT.601-6 525, BT.1358 525, BT.1700 NTSC, SMPTE 170M

Audio
ID                               : 2
Format                           : AC-3
Format/Info                      : Audio Coding 3
Format_Settings_ModeExtension    : CM (complete main)
Codec ID                         : A_AC3
Duration                         : 1h 29mn
Bit rate mode                    : Constant
Bit rate                         : 192 Kbps
Channel(s)                       : 2 channels
Channel positions                : Front: L R
Sampling rate                    : 48.0 KHz
Stream size                      : 122 MiB (9%)
Language                         : English

Text
ID                               : 3
Format                           : VobSub
Codec ID                         : S_VOBSUB
Codec ID/Info                    : The same subtitle format used on DVDs
Language                         : Swedish

Menu
00:00:00.000                     : Chapter 1
00:08:30.240                     : Chapter 2
00:18:29.880                     : Chapter 3
00:31:30.000                     : Chapter 4
00:37:36.960                     : Chapter 5
00:37:48.960                     : Chapter 6
00:46:33.720                     : Chapter 7
00:58:01.680                     : Chapter 8
01:10:56.280                     : Chapter 9



Screens:
 
http://bayimg.com/BAMjNaaCn